<?xml version="1.0" encoding="UTF-8"?>
<svg width="24px" height="24px" viewBox="0 0 24 24" version="1.1" xmlns="http://www.w3.org/2000/svg" xmlns:xlink="http://www.w3.org/1999/xlink">
    <!-- Generator: sketchtool 53.1 (72631) - https://sketchapp.com -->
    <title>E23D907F-1C01-4D7B-903F-537162ABD145</title>
    <desc>Created with sketchtool.</desc>
    <g id="Symbols-Page" stroke="none" stroke-width="1" fill="none" fill-rule="evenodd">
        <g id="Icon/icon-temperature" fill="#BFC6D2">
            <path d="M13,13.1707057 C14.1651924,13.5825421 15,14.6937812 15,16 C15,17.6568542 13.6568542,19 12,19 C10.3431458,19 9,17.6568542 9,16 C9,14.6937812 9.83480763,13.5825421 11,13.1707057 L11,9 L13,9 L13,13.1707057 Z M10,6 L10,12.4218163 L9.33382757,13.0180568 C8.48942144,13.7738207 8,14.8451254 8,16 C8,18.209139 9.790861,20 12,20 C14.209139,20 16,18.209139 16,16 C16,14.8451254 15.5105786,13.7738207 14.6661724,13.0180568 L14,12.4218163 L14,6 C14,4.8954305 13.1045695,4 12,4 C10.8954305,4 10,4.8954305 10,6 Z M8,11.527787 L8,6 C8,3.790861 9.790861,2 12,2 C14.209139,2 16,3.790861 16,6 L16,11.527787 C17.2274987,12.6264281 18,14.2230004 18,16 C18,19.3137085 15.3137085,22 12,22 C8.6862915,22 6,19.3137085 6,16 C6,14.2230004 6.77250128,12.6264281 8,11.527787 Z" id="Shape"></path>
        </g>
    </g>
</svg>