<?xml version="1.0" encoding="UTF-8"?>
<svg width="22px" height="30px" viewBox="0 0 22 30" version="1.1" xmlns="http://www.w3.org/2000/svg" xmlns:xlink="http://www.w3.org/1999/xlink">
    <!-- Generator: sketchtool 53.1 (72631) - https://sketchapp.com -->
    <title>D05642A6-4C7B-4517-9A96-D70C9292CC73</title>
    <desc>Created with sketchtool.</desc>
    <g id="Symbols-Page" stroke="none" stroke-width="1" fill="none" fill-rule="evenodd">
        <g id="Element/Misc/Pin_off" transform="translate(-7.000000, -3.000000)" fill="#2972E6">
            <g id="round-room-24px">
                <path d="M18,3 C12.195,3 7.5,7.695 7.5,13.5 C7.5,19.755 14.13,28.38 16.86,31.665 C17.46,32.385 18.555,32.385 19.155,31.665 C21.87,28.38 28.5,19.755 28.5,13.5 C28.5,7.695 23.805,3 18,3 Z M18,17.25 C15.93,17.25 14.25,15.57 14.25,13.5 C14.25,11.43 15.93,9.75 18,9.75 C20.07,9.75 21.75,11.43 21.75,13.5 C21.75,15.57 20.07,17.25 18,17.25 Z" id="Shape"></path>
            </g>
        </g>
    </g>
</svg>