<?xml version="1.0" encoding="UTF-8"?>
<svg width="24px" height="24px" viewBox="0 0 24 24" version="1.1" xmlns="http://www.w3.org/2000/svg" xmlns:xlink="http://www.w3.org/1999/xlink">
    <!-- Generator: sketchtool 53.1 (72631) - https://sketchapp.com -->
    <title>0513D361-C33C-4D87-8676-EFC6238CE107</title>
    <desc>Created with sketchtool.</desc>
    <g id="Symbols-Page" stroke="none" stroke-width="1" fill="none" fill-rule="evenodd">
        <g id="Icon/icon-launch">
            <g id="round-launch-24px">
                <polygon id="Path" points="0 0 24 0 24 24 0 24"></polygon>
                <path d="M18,19 L6,19 C5.45,19 5,18.55 5,18 L5,6 C5,5.45 5.45,5 6,5 L11,5 C11.55,5 12,4.55 12,4 C12,3.45 11.55,3 11,3 L5,3 C3.89,3 3,3.9 3,5 L3,19 C3,20.1 3.9,21 5,21 L19,21 C20.1,21 21,20.1 21,19 L21,13 C21,12.45 20.55,12 20,12 C19.45,12 19,12.45 19,13 L19,18 C19,18.55 18.55,19 18,19 Z M14,4 C14,4.55 14.45,5 15,5 L17.59,5 L8.46,14.13 C8.07,14.52 8.07,15.15 8.46,15.54 C8.85,15.93 9.48,15.93 9.87,15.54 L19,6.41 L19,9 C19,9.55 19.45,10 20,10 C20.55,10 21,9.55 21,9 L21,3 L15,3 C14.45,3 14,3.45 14,4 Z" id="Shape" fill="#BFC6D2"></path>
            </g>
        </g>
    </g>
</svg>